<svg width="500" height="343" viewBox="0 0 500 343" fill="none" xmlns="http://www.w3.org/2000/svg">
<g id="gameicon">
<g id="man">
<path id="Vector" d="M429.255 142.808C436.146 150.035 443.835 151.189 452.322 146.268C448.76 140.561 447.913 134.353 448.862 127.814H432.33C433.063 133.56 432.866 138.911 429.255 142.808Z" fill="#FFB8B8"/>
<path id="Vector_2" d="M456.55 331.957L465.393 327.344L469.237 278.518V252.76L448.861 252.376L454.628 278.134L456.55 331.957Z" fill="#FFB8B8"/>
<path id="Vector_3" d="M430.919 331.957L422.077 327.344L418.233 278.518V252.76L438.608 252.376L432.841 278.134L430.919 331.957Z" fill="#FFB8B8"/>
<path id="Vector_4" d="M417.337 258.142L438.866 256.22L442.326 236.613L446.555 255.836L470.006 254.298C470.519 244.957 469.217 235.342 466.162 225.464L414.646 224.311L417.337 258.142Z" fill="#2F2E41"/>
<path id="Vector_5" d="M394.96 184.508L369.062 164.566C368.794 164.359 368.498 164.189 368.184 164.061L364.42 162.53C361.397 161.3 355.638 157.209 358.447 152.996C360.711 149.599 369.378 155.684 370.444 157.938C370.781 158.647 371.334 159.232 372.023 159.608L377.286 162.492C377.414 162.562 377.546 162.625 377.681 162.68L397.718 170.801C398.274 171.026 398.875 171.116 399.472 171.062C400.069 171.008 400.644 170.812 401.15 170.492L404.783 168.188C405.3 167.86 405.889 167.664 406.499 167.615C407.109 167.566 407.722 167.666 408.284 167.907C408.847 168.149 409.342 168.523 409.727 168.999C410.112 169.474 410.376 170.037 410.495 170.637L411.695 176.697C411.868 177.569 411.727 178.474 411.296 179.253C410.865 180.031 410.173 180.631 409.342 180.948L398.599 185.043C397.997 185.272 397.347 185.344 396.71 185.25C396.072 185.156 395.47 184.901 394.96 184.508Z" fill="#FFB8B8"/>
<path id="Vector_6" d="M399.77 169.978C406.94 168.055 406.187 178.072 411.658 182.998L422.413 174.507L416.183 144.345C414.512 144.823 412.974 145.683 411.692 146.857C410.41 148.031 409.419 149.487 408.796 151.11L399.77 169.978Z" fill="#86C232"/>
<path id="Vector_7" d="M413.108 226.233H467.315C458.542 202.592 459.396 178.277 466.866 153.499C466.992 153.088 466.97 152.645 466.804 152.248C466.638 151.852 466.339 151.525 465.958 151.325L450.4 143.192C444.292 147.166 437.728 145.945 430.793 140.501L413.877 145.114C418.482 172.771 418.613 199.86 413.108 226.233Z" fill="#86C232"/>
<path id="Vector_8" d="M426.662 340.986L404.072 341.944C403.088 341.986 402.124 341.662 401.365 341.035C400.605 340.409 400.105 339.523 399.959 338.549C399.812 337.566 400.037 336.563 400.591 335.737C401.145 334.912 401.988 334.323 402.954 334.086L406.785 333.147L421.845 324.418C424.076 326.728 427.148 328.682 430.904 330.345L430.948 336.483C430.957 337.642 430.514 338.76 429.715 339.6C428.915 340.44 427.821 340.937 426.662 340.986Z" fill="#2F2E41"/>
<path id="Vector_9" d="M460.62 340.643L483.21 341.601C484.194 341.642 485.158 341.319 485.918 340.692C486.677 340.065 487.178 339.18 487.323 338.206C487.47 337.223 487.245 336.22 486.691 335.394C486.137 334.569 485.294 333.98 484.329 333.743L480.497 332.804L465.437 324.075C463.206 326.385 460.134 328.339 456.378 330.002L456.334 336.14C456.326 337.299 456.768 338.417 457.567 339.257C458.367 340.097 459.461 340.594 460.62 340.643Z" fill="#2F2E41"/>
<path id="Vector_10" d="M438.866 134.734C445.66 134.734 451.168 129.226 451.168 122.432C451.168 115.637 445.66 110.129 438.866 110.129C432.071 110.129 426.563 115.637 426.563 122.432C426.563 129.226 432.071 134.734 438.866 134.734Z" fill="#FFB8B8"/>
<path id="Vector_11" d="M458.088 222.389L454.024 230.291C453.665 230.989 453.458 231.754 453.417 232.537C453.375 233.32 453.499 234.104 453.782 234.835C454.064 235.567 454.498 236.23 455.056 236.782C455.613 237.334 456.281 237.761 457.015 238.037C457.792 238.328 458.625 238.442 459.451 238.369C460.278 238.297 461.078 238.04 461.793 237.618C462.508 237.196 463.119 236.619 463.581 235.93C464.044 235.241 464.346 234.456 464.466 233.635L466.162 222.004L472.313 192.786L471.928 178.177H459.626C463.822 189.043 461.741 205.07 458.088 222.389Z" fill="#FFB8B8"/>
<path id="Vector_12" d="M457.704 179.715H474.235L471.836 161.585C471.51 159.126 470.574 156.788 469.113 154.784C467.652 152.78 465.712 151.174 463.471 150.112L457.704 179.715Z" fill="#86C232"/>
<path id="Vector_13" d="M451.945 115.655C452.191 114.012 452.088 112.335 451.642 110.734C451.196 109.134 450.419 107.645 449.359 106.364C447.26 103.881 443.742 101.848 437.905 102.807C425.17 104.899 421.497 115.501 422.745 118.167C423.993 120.834 427.817 127.014 427.817 127.014C427.817 127.014 425.01 120.896 428.057 119.651C431.103 118.405 442.892 113.499 447.007 115.71C448.171 116.294 449.16 117.177 449.873 118.269C450.585 119.36 450.996 120.621 451.063 121.922L451.945 115.655Z" fill="#2F2E41"/>
</g>
<g id="headphone">
<path id="Vector_14" d="M241.38 64.4551L236.434 66.9649C230.737 55.7467 223.189 45.5691 214.108 36.8602C169.512 -6.01325 98.3497 -4.61154 55.4762 39.9849C12.6027 84.5813 14.0044 155.743 58.6008 198.617C67.0888 206.793 76.8128 213.58 87.4147 218.727L84.9951 223.718C68.1905 215.559 53.5687 203.517 42.3377 188.59C31.1068 173.662 23.589 156.276 20.4057 137.868C17.2223 119.461 18.4647 100.56 24.0302 82.7274C29.5957 64.8949 39.3246 48.6426 52.413 35.3134C65.5013 21.9842 81.5735 11.9607 99.3016 6.07096C117.03 0.181264 135.905 -1.40553 154.367 1.44169C172.83 4.2889 190.35 11.4884 205.48 22.4453C220.61 33.4023 232.916 47.8021 241.38 64.4551Z" fill="#E6E6E6"/>
<path id="Vector_15" d="M74.0383 167.644C66.7628 175.212 62.7917 185.36 62.9984 195.855C63.2051 206.351 67.5729 216.335 75.1407 223.61C82.7085 230.886 92.8566 234.857 103.352 234.65C113.848 234.444 123.832 230.076 131.107 222.508L137.922 215.42L80.8527 160.555L74.0383 167.644Z" fill="#E6E6E6"/>
<path id="Vector_16" d="M77.029 156.53C75.4096 158.218 74.526 160.48 74.572 162.819C74.6181 165.158 75.5901 167.383 77.2747 169.006L129.618 219.328C131.305 220.95 133.568 221.835 135.908 221.789C138.247 221.743 140.473 220.769 142.095 219.082C143.717 217.395 144.602 215.133 144.556 212.793C144.51 210.453 143.536 208.227 141.849 206.605L89.5056 156.284C87.8173 154.665 85.5555 153.781 83.2165 153.827C80.8775 153.873 78.6523 154.845 77.029 156.53Z" fill="#535461"/>
<path id="Vector_17" d="M234.022 115.458L240.836 108.37C248.112 100.802 252.083 90.6539 251.876 80.1581C251.669 69.6623 247.302 59.6785 239.734 52.4031C235.986 48.8006 231.566 45.9716 226.726 44.0773C221.885 42.1831 216.719 41.2608 211.522 41.3632C201.026 41.5699 191.042 45.9377 183.767 53.5055L176.953 60.5937L234.022 115.458Z" fill="#E6E6E6"/>
<path id="Vector_18" d="M172.779 56.9314C171.16 58.6198 170.276 60.8816 170.323 63.2206C170.369 65.5596 171.341 67.7848 173.025 69.4081L225.369 119.729C227.056 121.349 229.318 122.233 231.657 122.186C233.995 122.139 236.22 121.166 237.841 119.479C239.462 117.793 240.347 115.532 240.302 113.193C240.257 110.855 239.285 108.629 237.6 107.007L185.256 56.6857C183.568 55.0662 181.306 54.1826 178.967 54.2287C176.628 54.2748 174.403 55.2468 172.779 56.9314Z" fill="#535461"/>
</g>
<g id="trigger">
<path id="Vector_19" d="M194.86 173.223V169.135C194.86 169.135 212.701 159.099 227.197 169.135V172.851L194.86 173.223Z" fill="#535461"/>
<path id="Vector_20" d="M357.288 173.223V169.135C357.288 169.135 375.129 159.099 389.625 169.135V172.851L357.288 173.223Z" fill="#535461"/>
</g>
<path id="whole control" d="M248.383 172.851H230.914C230.914 172.851 226.454 167.648 211.586 168.019C196.719 168.391 193.745 172.851 193.745 172.851C193.745 172.851 179.063 182.701 175.718 194.967C175.718 194.967 157.691 249.047 157.32 291.42C156.948 333.792 173.302 339.739 181.851 340.854C190.4 341.969 205.639 340.483 220.507 302.942L226.825 281.013C226.825 281.013 227.94 268.004 241.321 276.181C254.702 284.358 266.596 271.72 266.596 271.72H316.774C316.774 271.72 333.5 282.128 348.739 273.951C348.739 273.951 354.686 266.145 360.261 292.535C360.261 292.535 377.359 346.801 403.749 341.226C430.139 335.651 427.165 290.305 427.165 290.305C427.165 290.305 423.634 220.985 409.138 196.454C409.138 196.454 395.2 170.993 385.908 169.878C385.908 169.878 365.837 166.161 358.031 169.506L353.571 173.223L248.383 172.851Z" fill="#E6E6E6"/>
<g id="leftControl">
<path id="Vector_21" d="M207.869 241.614C225.728 241.614 240.206 227.136 240.206 209.277C240.206 191.418 225.728 176.94 207.869 176.94C190.01 176.94 175.532 191.418 175.532 209.277C175.532 227.136 190.01 241.614 207.869 241.614Z" fill="#535461"/>
<path id="Vector_22" d="M213.504 202.066L209.193 205.88C208.828 206.201 208.358 206.378 207.871 206.378C207.385 206.378 206.915 206.201 206.55 205.88L202.231 202.066C202.02 201.88 201.85 201.651 201.734 201.395C201.617 201.139 201.556 200.861 201.554 200.579V190.087C201.555 189.557 201.767 189.049 202.141 188.675C202.516 188.301 203.024 188.091 203.554 188.091H212.196C212.725 188.09 213.233 188.299 213.608 188.673C213.983 189.046 214.195 189.553 214.196 190.083V200.572C214.193 200.856 214.13 201.136 214.011 201.394C213.892 201.651 213.719 201.88 213.504 202.066Z" fill="#E6E6E6"/>
<path id="Vector_23" d="M213.504 216.484L209.193 212.674C208.827 212.353 208.358 212.175 207.871 212.175C207.385 212.175 206.915 212.353 206.55 212.674L202.231 216.488C202.02 216.674 201.85 216.902 201.734 217.159C201.617 217.415 201.556 217.693 201.554 217.974V228.456C201.553 228.985 201.763 229.493 202.136 229.868C202.51 230.243 203.017 230.455 203.547 230.456H212.196C212.725 230.457 213.233 230.247 213.608 229.874C213.983 229.5 214.195 228.993 214.196 228.463V217.978C214.193 217.694 214.13 217.414 214.011 217.156C213.892 216.899 213.719 216.669 213.504 216.484Z" fill="#E6E6E6"/>
<path id="Vector_24" d="M200.662 214.919L204.476 210.6C204.797 210.235 204.974 209.765 204.974 209.279C204.974 208.792 204.797 208.322 204.476 207.957L200.662 203.638C200.476 203.427 200.247 203.258 199.991 203.141C199.735 203.025 199.457 202.964 199.175 202.962H188.694C188.164 202.963 187.656 203.174 187.282 203.549C186.908 203.924 186.698 204.432 186.698 204.962V213.603C186.697 214.133 186.906 214.641 187.28 215.016C187.653 215.391 188.161 215.602 188.69 215.603H199.179C199.46 215.6 199.738 215.537 199.994 215.42C200.249 215.302 200.477 215.131 200.662 214.919Z" fill="#E6E6E6"/>
<path id="Vector_25" d="M215.08 214.919L211.274 210.596C210.952 210.232 210.774 209.762 210.774 209.275C210.774 208.788 210.952 208.318 211.274 207.954L215.087 203.635C215.274 203.423 215.502 203.254 215.758 203.137C216.015 203.021 216.293 202.96 216.574 202.958H227.056C227.585 202.957 228.093 203.167 228.468 203.54C228.843 203.914 229.054 204.421 229.055 204.95V213.6C229.056 214.129 228.847 214.637 228.473 215.012C228.1 215.387 227.593 215.598 227.063 215.599H216.578C216.294 215.599 216.014 215.538 215.756 215.421C215.497 215.303 215.267 215.132 215.08 214.919Z" fill="#E6E6E6"/>
</g>
<g id="left move">
<path id="Vector_26" d="M251.728 268.004C264.661 268.004 275.145 257.52 275.145 244.587C275.145 231.655 264.661 221.171 251.728 221.171C238.796 221.171 228.312 231.655 228.312 244.587C228.312 257.52 238.796 268.004 251.728 268.004Z" fill="#535461"/>
<path id="Vector_27" d="M251.728 260.198C260.35 260.198 267.339 253.209 267.339 244.587C267.339 235.966 260.35 228.976 251.728 228.976C243.107 228.976 236.117 235.966 236.117 244.587C236.117 253.209 243.107 260.198 251.728 260.198Z" fill="#E6E6E6"/>
<path id="Vector_28" d="M251.728 255.366C249.597 255.366 247.513 254.734 245.74 253.55C243.967 252.365 242.586 250.682 241.77 248.712C240.954 246.742 240.741 244.575 241.157 242.484C241.572 240.393 242.599 238.473 244.107 236.965C245.614 235.458 247.535 234.431 249.626 234.015C251.716 233.599 253.884 233.813 255.853 234.629C257.823 235.444 259.506 236.826 260.691 238.599C261.875 240.371 262.507 242.455 262.507 244.587C262.504 247.445 261.367 250.185 259.347 252.205C257.326 254.226 254.586 255.363 251.728 255.366ZM251.728 234.552C249.744 234.552 247.803 235.14 246.153 236.243C244.503 237.346 243.216 238.913 242.457 240.747C241.697 242.58 241.498 244.598 241.886 246.545C242.273 248.492 243.229 250.28 244.632 251.683C246.036 253.087 247.824 254.043 249.771 254.43C251.717 254.817 253.735 254.618 255.569 253.859C257.403 253.099 258.97 251.813 260.073 250.163C261.175 248.512 261.764 246.572 261.764 244.587C261.761 241.926 260.703 239.376 258.821 237.494C256.94 235.613 254.389 234.555 251.728 234.552Z" fill="#535461"/>
</g>
<g id="right move">
<path id="Vector_29" d="M332.756 268.004C345.689 268.004 356.173 257.52 356.173 244.587C356.173 231.655 345.689 221.171 332.756 221.171C319.824 221.171 309.34 231.655 309.34 244.587C309.34 257.52 319.824 268.004 332.756 268.004Z" fill="#535461"/>
<path id="Vector_30" d="M332.756 260.198C341.378 260.198 348.367 253.209 348.367 244.587C348.367 235.966 341.378 228.976 332.756 228.976C324.135 228.976 317.146 235.966 317.146 244.587C317.146 253.209 324.135 260.198 332.756 260.198Z" fill="#E6E6E6"/>
<path id="Vector_31" d="M332.757 255.366C330.625 255.366 328.541 254.734 326.768 253.55C324.995 252.365 323.614 250.682 322.798 248.712C321.982 246.742 321.769 244.575 322.185 242.484C322.601 240.393 323.627 238.473 325.135 236.965C326.642 235.458 328.563 234.431 330.654 234.015C332.745 233.599 334.912 233.813 336.881 234.629C338.851 235.444 340.535 236.826 341.719 238.599C342.903 240.371 343.536 242.455 343.536 244.587C343.532 247.445 342.396 250.185 340.375 252.205C338.354 254.226 335.614 255.363 332.757 255.366ZM332.757 234.552C330.772 234.552 328.831 235.14 327.181 236.243C325.531 237.346 324.244 238.913 323.485 240.747C322.725 242.58 322.527 244.598 322.914 246.545C323.301 248.492 324.257 250.28 325.66 251.683C327.064 253.087 328.852 254.043 330.799 254.43C332.745 254.817 334.763 254.618 336.597 253.859C338.431 253.099 339.998 251.813 341.101 250.163C342.204 248.512 342.792 246.572 342.792 244.587C342.789 241.926 341.731 239.376 339.849 237.494C337.968 235.613 335.417 234.555 332.757 234.552Z" fill="#535461"/>
</g>
<g id="small dots">
<path id="Vector_32" d="M292.986 253.879C296.681 253.879 299.676 250.884 299.676 247.189C299.676 243.494 296.681 240.499 292.986 240.499C289.291 240.499 286.295 243.494 286.295 247.189C286.295 250.884 289.291 253.879 292.986 253.879Z" fill="#535461"/>
<path id="Vector_33" d="M282.761 226.319C283.567 226.319 284.221 225.665 284.221 224.858C284.221 224.051 283.567 223.397 282.761 223.397C281.954 223.397 281.3 224.051 281.3 224.858C281.3 225.665 281.954 226.319 282.761 226.319Z" fill="#535461"/>
<path id="Vector_34" d="M288.232 226.319C289.039 226.319 289.693 225.665 289.693 224.858C289.693 224.051 289.039 223.397 288.232 223.397C287.425 223.397 286.771 224.051 286.771 224.858C286.771 225.665 287.425 226.319 288.232 226.319Z" fill="#535461"/>
<path id="Vector_35" d="M287.503 233.251C288.31 233.251 288.964 232.597 288.964 231.79C288.964 230.983 288.31 230.329 287.503 230.329C286.697 230.329 286.043 230.983 286.043 231.79C286.043 232.597 286.697 233.251 287.503 233.251Z" fill="#535461"/>
<path id="Vector_36" d="M292.614 233.437C293.435 233.437 294.101 232.771 294.101 231.95C294.101 231.129 293.435 230.463 292.614 230.463C291.793 230.463 291.127 231.129 291.127 231.95C291.127 232.771 291.793 233.437 292.614 233.437Z" fill="#535461"/>
<path id="Vector_37" d="M297.717 233.251C298.524 233.251 299.178 232.597 299.178 231.79C299.178 230.983 298.524 230.329 297.717 230.329C296.911 230.329 296.257 230.983 296.257 231.79C296.257 232.597 296.911 233.251 297.717 233.251Z" fill="#535461"/>
<path id="Vector_38" d="M285.314 229.969C286.121 229.969 286.775 229.315 286.775 228.508C286.775 227.701 286.121 227.047 285.314 227.047C284.508 227.047 283.854 227.701 283.854 228.508C283.854 229.315 284.508 229.969 285.314 229.969Z" fill="#535461"/>
<path id="Vector_39" d="M290.012 230.091C290.833 230.091 291.499 229.426 291.499 228.605C291.499 227.783 290.833 227.118 290.012 227.118C289.191 227.118 288.526 227.783 288.526 228.605C288.526 229.426 289.191 230.091 290.012 230.091Z" fill="#535461"/>
<path id="Vector_40" d="M294.844 230.091C295.665 230.091 296.331 229.426 296.331 228.605C296.331 227.783 295.665 227.118 294.844 227.118C294.023 227.118 293.358 227.783 293.358 228.605C293.358 229.426 294.023 230.091 294.844 230.091Z" fill="#535461"/>
<path id="Vector_41" d="M299.907 229.969C300.714 229.969 301.368 229.315 301.368 228.508C301.368 227.701 300.714 227.047 299.907 227.047C299.1 227.047 298.446 227.701 298.446 228.508C298.446 229.315 299.1 229.969 299.907 229.969Z" fill="#535461"/>
<path id="Vector_42" d="M292.614 226.375C293.435 226.375 294.101 225.709 294.101 224.888C294.101 224.067 293.435 223.401 292.614 223.401C291.793 223.401 291.127 224.067 291.127 224.888C291.127 225.709 291.793 226.375 292.614 226.375Z" fill="#535461"/>
<path id="Vector_43" d="M297.818 226.375C298.639 226.375 299.305 225.709 299.305 224.888C299.305 224.067 298.639 223.401 297.818 223.401C296.997 223.401 296.331 224.067 296.331 224.888C296.331 225.709 296.997 226.375 297.818 226.375Z" fill="#535461"/>
<path id="Vector_44" d="M302.096 226.319C302.903 226.319 303.557 225.665 303.557 224.858C303.557 224.051 302.903 223.397 302.096 223.397C301.289 223.397 300.635 224.051 300.635 224.858C300.635 225.665 301.289 226.319 302.096 226.319Z" fill="#535461"/>
</g>
<g id="middle pad">
<path id="Vector_45" d="M237.418 176.019C236.731 176.02 236.072 176.293 235.585 176.78C235.099 177.266 234.826 177.925 234.825 178.613V186.418C234.826 187.106 235.099 187.765 235.585 188.251C236.072 188.737 236.731 189.011 237.418 189.011H239.277C239.964 189.011 240.623 188.737 241.11 188.251C241.596 187.765 241.869 187.106 241.87 186.418V178.613C241.869 177.925 241.596 177.266 241.11 176.78C240.623 176.293 239.964 176.02 239.277 176.019H237.418Z" fill="#535461"/>
<path id="Vector_46" d="M345.951 176.019C345.264 176.02 344.604 176.293 344.118 176.78C343.632 177.266 343.359 177.925 343.358 178.613V186.418C343.359 187.106 343.632 187.765 344.118 188.251C344.604 188.737 345.264 189.011 345.951 189.011H347.81C348.497 189.011 349.156 188.737 349.643 188.251C350.129 187.765 350.402 187.106 350.403 186.418V178.613C350.402 177.925 350.129 177.266 349.643 176.78C349.156 176.293 348.497 176.02 347.81 176.019H345.951Z" fill="#535461"/>
<path id="Vector_47" d="M254.237 170.816C252.244 170.818 250.333 171.611 248.924 173.02C247.514 174.43 246.721 176.341 246.719 178.334V211.6C246.721 213.593 247.514 215.504 248.924 216.913C250.333 218.323 252.244 219.116 254.237 219.118H330.619C332.612 219.116 334.523 218.323 335.933 216.913C337.342 215.504 338.135 213.593 338.137 211.6V178.334C338.135 176.341 337.342 174.43 335.933 173.02C334.523 171.611 332.612 170.818 330.619 170.816H254.237Z" fill="#535461"/>
</g>
<g id="rightControl">
<path id="Vector_48" d="M376.616 241.614C394.475 241.614 408.953 227.136 408.953 209.277C408.953 191.418 394.475 176.94 376.616 176.94C358.757 176.94 344.279 191.418 344.279 209.277C344.279 227.136 358.757 241.614 376.616 241.614Z" fill="#535461"/>
<path id="Vector_49" d="M376.987 198.498C381.914 198.498 385.908 194.504 385.908 189.577C385.908 184.651 381.914 180.657 376.987 180.657C372.061 180.657 368.067 184.651 368.067 189.577C368.067 194.504 372.061 198.498 376.987 198.498Z" fill="#E6E6E6"/>
<path id="Vector_50" d="M358.031 217.454C362.958 217.454 366.952 213.46 366.952 208.533C366.952 203.607 362.958 199.613 358.031 199.613C353.105 199.613 349.111 203.607 349.111 208.533C349.111 213.46 353.105 217.454 358.031 217.454Z" fill="#E6E6E6"/>
<path id="Vector_51" d="M396.687 216.339C401.614 216.339 405.607 212.345 405.607 207.418C405.607 202.492 401.614 198.498 396.687 198.498C391.76 198.498 387.766 202.492 387.766 207.418C387.766 212.345 391.76 216.339 396.687 216.339Z" fill="#E6E6E6"/>
<path id="Vector_52" d="M378.474 236.038C383.401 236.038 387.395 232.044 387.395 227.118C387.395 222.191 383.401 218.197 378.474 218.197C373.547 218.197 369.553 222.191 369.553 227.118C369.553 232.044 373.547 236.038 378.474 236.038Z" fill="#E6E6E6"/>
<path id="Vector_53" d="M383.048 193.666H370.951L376.791 183.655L383.048 193.666ZM372.245 192.922H381.706L376.813 185.093L372.245 192.922Z" fill="#535461"/>
<path id="Vector_54" d="M363.049 212.994H353.013V204.073H363.049V212.994ZM353.757 212.25H362.306V204.816H353.757V212.25Z" fill="#535461"/>
<path id="Vector_55" d="M396.687 212.994C395.584 212.994 394.506 212.667 393.589 212.054C392.673 211.441 391.958 210.571 391.536 209.552C391.114 208.533 391.004 207.412 391.219 206.331C391.434 205.249 391.965 204.256 392.745 203.476C393.524 202.696 394.518 202.165 395.599 201.95C396.681 201.735 397.802 201.845 398.82 202.267C399.839 202.689 400.71 203.404 401.323 204.321C401.935 205.238 402.262 206.316 402.262 207.418C402.261 208.896 401.673 210.314 400.627 211.359C399.582 212.404 398.165 212.992 396.687 212.994ZM396.687 202.586C395.731 202.586 394.797 202.87 394.002 203.401C393.208 203.932 392.588 204.686 392.223 205.569C391.857 206.452 391.761 207.424 391.948 208.361C392.134 209.298 392.594 210.159 393.27 210.835C393.946 211.511 394.807 211.971 395.744 212.157C396.682 212.344 397.653 212.248 398.536 211.882C399.419 211.517 400.174 210.897 400.705 210.103C401.235 209.308 401.519 208.374 401.519 207.418C401.517 206.137 401.008 204.909 400.102 204.003C399.196 203.097 397.968 202.588 396.687 202.586Z" fill="#535461"/>
<path id="Vector_56" d="M374.462 222.674L373.937 223.199L382.3 231.562L382.825 231.036L374.462 222.674Z" fill="#535461"/>
<path id="Vector_57" d="M382.491 222.667L373.943 230.845L374.457 231.383L383.005 223.204L382.491 222.667Z" fill="#535461"/>
</g>
<g id="woman">
<path id="Vector_58" d="M79.008 85.8819C58.7139 91.4769 36.4909 95.6886 28.5281 89.1546C32.8878 81.8966 35.4024 74.7429 35.6157 67.7191C35.6638 64.5054 36.9654 61.4376 39.243 59.1699C40.7509 57.7132 42.5709 56.6193 44.5649 55.9713C46.5588 55.3234 48.6742 55.1385 50.7504 55.4306L56.0172 56.1696C56.1945 56.1945 56.3709 56.2228 56.5463 56.2544C59.0743 56.7333 61.3888 57.9919 63.165 59.8534C64.9412 61.7149 66.0899 64.086 66.4497 66.6336C67.5593 74.2498 71.2908 80.8433 79.008 85.8819Z" fill="#2F2E41"/>
<path id="Vector_59" d="M98.5843 158.138L106.474 159.765C107.077 159.89 107.644 160.146 108.135 160.517C108.626 160.888 109.028 161.364 109.312 161.909C109.596 162.455 109.756 163.057 109.778 163.672C109.801 164.287 109.686 164.899 109.442 165.464C109.207 166.01 108.857 166.499 108.416 166.898C107.975 167.297 107.453 167.596 106.886 167.775C106.319 167.954 105.72 168.009 105.13 167.937C104.54 167.864 103.973 167.665 103.466 167.353L91.3978 159.931L70.8994 111.743L81.5165 108.672L98.5843 158.138Z" fill="#A0616A"/>
<path id="Vector_60" d="M42.3816 221.37L36.4078 223.107L31.886 213.769L36.4842 211.373L42.3816 221.37Z" fill="#A0616A"/>
<path id="Vector_61" d="M39.3462 261.382L32.0166 259.442L33.164 246.849L39.4718 247.238L39.3462 261.382Z" fill="#A0616A"/>
<path id="Vector_62" d="M40.1107 212.64L32.3477 217.749L2.49027 183.977C1.84263 183.244 1.36438 182.378 1.08955 181.44C0.814723 180.501 0.750066 179.514 0.900172 178.548C1.05028 177.581 1.41146 176.66 1.95803 175.849C2.5046 175.039 3.22313 174.358 4.06249 173.857L41.2574 151.632L46.9543 167.997L27.5868 186.172L40.1107 212.64Z" fill="#2F2E41"/>
<path id="Vector_63" d="M46.6484 230.319C46.629 230.344 46.6095 230.369 46.5899 230.394C46.0938 233.299 45.2224 235.949 43.2764 237.868C42.6994 239.169 41.6635 240.212 40.3663 240.798C39.0691 241.384 37.6016 241.471 36.244 241.044C34.9636 240.641 33.8631 239.805 33.1306 238.68C32.3982 237.555 32.0793 236.211 32.2285 234.877L33.6791 221.911C37.1589 221.111 39.8129 219.132 41.1562 215.282L44.538 217.585C45.5388 218.262 46.3913 219.135 47.0435 220.151C47.6957 221.168 48.1339 222.307 48.3314 223.498C48.5289 224.69 48.4815 225.909 48.1922 227.082C47.9028 228.254 47.3776 229.356 46.6484 230.319Z" fill="#2F2E41"/>
<path id="Vector_64" d="M50.3286 83.1052C56.9276 83.1052 62.2771 77.7557 62.2771 71.1567C62.2771 64.5578 56.9276 59.2083 50.3286 59.2083C43.7297 59.2083 38.3801 64.5578 38.3801 71.1567C38.3801 77.7557 43.7297 83.1052 50.3286 83.1052Z" fill="#A0616A"/>
<path id="Vector_65" d="M60.6761 90.2576L41.8394 105.858L40.3723 99.4365L43.6602 94.4247C44.5726 89.5075 43.9835 84.0851 42.4156 78.3334L54.7053 78.3447C55.2358 82.9927 57.0453 87.0475 60.6761 90.2576Z" fill="#A0616A"/>
<path id="Vector_66" d="M65.9792 131.179L40.5495 138.925L38.5711 129.881C33.8055 123.482 31.7339 117.642 34.8517 112.877L33.2827 105.704C37.7835 102.161 41.3227 98.5348 43.2661 94.7729L58.9121 88.6594L70.414 89.367L73.8105 100.749L65.9792 131.179Z" fill="#86C232"/>
<path id="Vector_67" d="M84.0452 109.945C78.6245 109.887 73.3196 111.513 68.8616 114.597L70.4139 89.3669C71.9897 89.5774 73.4834 90.1944 74.7483 91.1573C76.0132 92.1202 77.0056 93.3959 77.6278 94.8587L84.0452 109.945Z" fill="#86C232"/>
<path id="Vector_68" d="M40.031 250.251L31.9597 248.265L33.1477 179.683L43.986 167.814L41.5599 152.768L39.99 135.911L66.4642 129.347C75.4126 145.595 80.8213 160.367 72.9263 169.595L40.031 250.251Z" fill="#2F2E41"/>
<path id="Vector_69" d="M38.1774 273.407C38.1412 273.421 38.1049 273.435 38.0686 273.449C35.725 276.171 33.1499 278.39 29.9124 279.17C28.4923 280.166 26.7551 280.604 25.0325 280.4C23.3099 280.197 21.7226 279.366 20.5737 278.066C19.4902 276.841 18.8662 275.277 18.8084 273.642C18.7505 272.007 19.2625 270.403 20.2567 269.104L29.9199 256.477C34.0559 257.829 38.0705 257.431 41.8927 254.255L43.9761 258.786C44.5961 260.121 44.9376 261.568 44.9797 263.039C45.0218 264.51 44.7636 265.975 44.221 267.343C43.6783 268.711 42.8626 269.955 41.8235 270.997C40.7844 272.04 39.5438 272.86 38.1774 273.407Z" fill="#2F2E41"/>
<path id="Vector_70" d="M8.69282 166.388L1.60832 172.453C1.02043 172.957 0.569115 173.6 0.29623 174.324C0.0233452 175.049 -0.062285 175.83 0.0472761 176.596C0.156837 177.362 0.458046 178.088 0.922978 178.707C1.38791 179.326 2.00152 179.817 2.70693 180.136C3.76885 180.615 4.97316 180.673 6.07639 180.299C7.17962 179.924 8.09947 179.144 8.64999 178.118L13.7731 168.562L37.2673 125.688L28.4311 124.027L8.69282 166.388Z" fill="#A0616A"/>
<path id="Vector_71" d="M38.6828 126.893C34.0939 125.507 29.7954 124.692 26.4617 125.768C27.1605 117.121 28.6008 109.396 33.2827 105.704L39.9384 106.486L38.6828 126.893Z" fill="#86C232"/>
<path id="Vector_72" d="M63.6674 68.3861L38.1118 66.8137L38.4263 61.7026C47.3472 55.6874 55.8657 56.2115 63.9819 63.275L63.6674 68.3861Z" fill="#2F2E41"/>
</g>
<g id="GBLT">
<mask id="path-74-outside-1" maskUnits="userSpaceOnUse" x="210.481" y="145.056" width="49" height="20" fill="black">
<rect fill="white" x="210.481" y="145.056" width="49" height="20"/>
<path d="M213.665 146.272V163H211.481V146.272H213.665Z"/>
<path d="M227.683 146.272V148.048H223.123V163H220.939V148.048H216.355V146.272H227.683Z"/>
<path d="M232.555 148.048V153.64H238.651V155.44H232.555V161.2H239.371V163H230.371V146.248H239.371V148.048H232.555Z"/>
<path d="M241.86 154.624C241.86 152.992 242.228 151.528 242.964 150.232C243.7 148.92 244.7 147.896 245.964 147.16C247.244 146.424 248.66 146.056 250.212 146.056C252.036 146.056 253.628 146.496 254.988 147.376C256.348 148.256 257.34 149.504 257.964 151.12H255.348C254.884 150.112 254.212 149.336 253.332 148.792C252.468 148.248 251.428 147.976 250.212 147.976C249.044 147.976 247.996 148.248 247.068 148.792C246.14 149.336 245.412 150.112 244.884 151.12C244.356 152.112 244.092 153.28 244.092 154.624C244.092 155.952 244.356 157.12 244.884 158.128C245.412 159.12 246.14 159.888 247.068 160.432C247.996 160.976 249.044 161.248 250.212 161.248C251.428 161.248 252.468 160.984 253.332 160.456C254.212 159.912 254.884 159.136 255.348 158.128H257.964C257.34 159.728 256.348 160.968 254.988 161.848C253.628 162.712 252.036 163.144 250.212 163.144C248.66 163.144 247.244 162.784 245.964 162.064C244.7 161.328 243.7 160.312 242.964 159.016C242.228 157.72 241.86 156.256 241.86 154.624Z"/>
</mask>
<path d="M213.665 146.272V163H211.481V146.272H213.665Z" stroke="white" stroke-width="2" mask="url(#path-74-outside-1)"/>
<path d="M227.683 146.272V148.048H223.123V163H220.939V148.048H216.355V146.272H227.683Z" stroke="white" stroke-width="2" mask="url(#path-74-outside-1)"/>
<path d="M232.555 148.048V153.64H238.651V155.44H232.555V161.2H239.371V163H230.371V146.248H239.371V148.048H232.555Z" stroke="white" stroke-width="2" mask="url(#path-74-outside-1)"/>
<path d="M241.86 154.624C241.86 152.992 242.228 151.528 242.964 150.232C243.7 148.92 244.7 147.896 245.964 147.16C247.244 146.424 248.66 146.056 250.212 146.056C252.036 146.056 253.628 146.496 254.988 147.376C256.348 148.256 257.34 149.504 257.964 151.12H255.348C254.884 150.112 254.212 149.336 253.332 148.792C252.468 148.248 251.428 147.976 250.212 147.976C249.044 147.976 247.996 148.248 247.068 148.792C246.14 149.336 245.412 150.112 244.884 151.12C244.356 152.112 244.092 153.28 244.092 154.624C244.092 155.952 244.356 157.12 244.884 158.128C245.412 159.12 246.14 159.888 247.068 160.432C247.996 160.976 249.044 161.248 250.212 161.248C251.428 161.248 252.468 160.984 253.332 160.456C254.212 159.912 254.884 159.136 255.348 158.128H257.964C257.34 159.728 256.348 160.968 254.988 161.848C253.628 162.712 252.036 163.144 250.212 163.144C248.66 163.144 247.244 162.784 245.964 162.064C244.7 161.328 243.7 160.312 242.964 159.016C242.228 157.72 241.86 156.256 241.86 154.624Z" stroke="white" stroke-width="2" mask="url(#path-74-outside-1)"/>
</g>
</g>
</svg>
